<svg width="473" height="370" viewBox="0 0 473 370" fill="none" xmlns="http://www.w3.org/2000/svg">
<g clip-path="url(#clip0_18_743)">
<path d="M269.328 180.93C279.972 180.93 288.6 172.263 288.6 161.571C288.6 150.88 279.972 142.212 269.328 142.212C258.685 142.212 250.057 150.88 250.057 161.571C250.057 172.263 258.685 180.93 269.328 180.93Z" fill="#E6E6E6"/>
<path d="M316.559 186.448L296.42 166.218C297.964 163.806 299.01 161.107 299.497 158.282C299.983 155.456 299.9 152.561 299.252 149.769C298.605 146.976 297.406 144.342 295.726 142.024C294.047 139.705 291.921 137.748 289.475 136.27C284.869 133.506 279.398 132.581 274.145 133.677C268.893 134.773 264.241 137.811 261.112 142.188C258.233 146.244 256.85 151.18 257.202 156.148C257.553 161.116 259.616 165.806 263.037 169.412C266.458 173.018 271.022 175.314 275.945 175.905C280.869 176.497 285.843 175.347 290.014 172.653L310.153 192.884C311.003 193.736 312.155 194.215 313.356 194.215C314.557 194.214 315.709 193.735 316.558 192.882C317.407 192.029 317.884 190.872 317.885 189.665C317.885 188.459 317.408 187.302 316.559 186.448ZM289.262 165.463C286.767 167.97 283.483 169.53 279.971 169.877C276.459 170.225 272.936 169.338 270.001 167.369C267.067 165.399 264.903 162.469 263.879 159.076C262.854 155.684 263.033 152.04 264.383 148.764C265.734 145.489 268.173 142.786 271.285 141.115C274.398 139.444 277.99 138.908 281.452 139.6C284.913 140.291 288.028 142.167 290.267 144.907C292.506 147.648 293.73 151.083 293.73 154.628C293.732 156.641 293.339 158.634 292.572 160.493C291.805 162.353 290.681 164.041 289.262 165.463Z" fill="#3F3D56"/>
<path d="M462.546 216.289C514.05 273.504 364.75 355.959 244.111 355.959C123.473 355.959 40.0105 292.071 25.6767 216.289C-9.0779 32.5433 321.794 -84.2444 244.111 76.6188C130.88 311.095 421.986 171.231 462.546 216.289Z" fill="#E6E6E6"/>
<path d="M439.437 229.83C490.941 287.045 341.641 369.5 221.003 369.5C100.364 369.5 16.9016 305.612 2.5678 229.83C-32.1868 46.0844 298.685 -70.7033 221.003 90.1598C107.771 324.637 398.877 184.772 439.437 229.83Z" fill="#3F3D56"/>
<path d="M72.0191 95.6863C35.8793 94.0879 7.85812 86.257 8.22624 77.8584C8.44695 72.8232 18.6749 68.7742 36.2873 66.7502C36.3503 66.7425 36.4143 66.7474 36.4754 66.7647C36.5365 66.7819 36.5936 66.8111 36.6435 66.8506C36.6933 66.8902 36.7349 66.9392 36.7658 66.9949C36.7967 67.0506 36.8163 67.1119 36.8235 67.1753C36.8307 67.2387 36.8254 67.3028 36.8078 67.3641C36.7903 67.4254 36.7608 67.4826 36.7211 67.5324C36.6814 67.5822 36.6324 67.6236 36.5767 67.6543C36.521 67.685 36.4599 67.7043 36.3967 67.7111C19.8058 69.618 9.38009 73.5225 9.18816 77.901C8.85526 85.4958 37.6476 93.1979 72.0614 94.72C106.475 96.2422 135.83 91.1118 136.163 83.517C136.356 79.1201 126.247 74.2967 109.782 70.9294C109.72 70.9169 109.66 70.8922 109.608 70.8568C109.555 70.8213 109.51 70.7757 109.475 70.7227C109.44 70.6697 109.416 70.6103 109.404 70.5478C109.392 70.4853 109.392 70.4211 109.405 70.3587C109.417 70.2964 109.442 70.2372 109.477 70.1844C109.513 70.1317 109.558 70.0865 109.611 70.0515C109.664 70.0165 109.723 69.9923 109.786 69.9803C109.848 69.9683 109.912 69.9687 109.974 69.9816C127.45 73.5558 137.346 78.5047 137.125 83.5595C136.757 91.9581 108.159 97.2848 72.0191 95.6863Z" fill="white"/>
<path d="M39.9219 97.0929C42.9452 102.862 47.4237 107.733 52.9094 111.217C58.3951 114.702 64.6956 116.678 71.1804 116.948C77.6653 117.219 84.1071 115.774 89.8614 112.758C95.6156 109.742 100.481 105.261 103.969 99.7633C82.5877 100.053 61.2062 99.1613 39.9219 97.0929Z" fill="white"/>
<path d="M107.967 89.5906C109.787 84.1083 110.311 78.2759 109.498 72.5549C108.686 66.8339 106.559 61.3814 103.286 56.6288C100.013 51.8763 95.6839 47.9543 90.6411 45.1731C85.5983 42.3919 79.9802 40.8279 74.2316 40.6049C68.483 40.3819 62.7616 41.506 57.5202 43.8883C52.2789 46.2705 47.6615 49.8455 44.0334 54.3303C40.4053 58.8152 37.8662 64.0867 36.6169 69.7277C35.3677 75.3687 35.4427 81.2244 36.8359 86.8313C60.3277 90.8373 84.2377 91.7648 107.967 89.5906Z" fill="white"/>
<path d="M81.2816 64.6268C83.6746 64.6268 85.6145 62.6782 85.6145 60.2743C85.6145 57.8705 83.6746 55.9219 81.2816 55.9219C78.8886 55.9219 76.9487 57.8705 76.9487 60.2743C76.9487 62.6782 78.8886 64.6268 81.2816 64.6268Z" fill="white"/>
<path d="M58.9817 81.5485C62.97 81.5485 66.2032 78.3007 66.2032 74.2944C66.2032 70.2881 62.97 67.0403 58.9817 67.0403C54.9934 67.0403 51.7603 70.2881 51.7603 74.2944C51.7603 78.3007 54.9934 81.5485 58.9817 81.5485Z" fill="white"/>
<path d="M167.974 74.4427C170.633 74.4427 172.788 72.2775 172.788 69.6067C172.788 66.9359 170.633 64.7708 167.974 64.7708C165.315 64.7708 163.16 66.9359 163.16 69.6067C163.16 72.2775 165.315 74.4427 167.974 74.4427Z" fill="white"/>
<path d="M59.1704 222.427C60.7657 222.427 62.059 221.128 62.059 219.525C62.059 217.923 60.7657 216.624 59.1704 216.624C57.575 216.624 56.2817 217.923 56.2817 219.525C56.2817 221.128 57.575 222.427 59.1704 222.427Z" fill="#E6E6E6"/>
<path d="M261.371 322.05C262.966 322.05 264.26 320.751 264.26 319.149C264.26 317.546 262.966 316.247 261.371 316.247C259.776 316.247 258.482 317.546 258.482 319.149C258.482 320.751 259.776 322.05 261.371 322.05Z" fill="#E6E6E6"/>
<path d="M73.1318 166.328C73.9295 166.328 74.5762 165.679 74.5762 164.878C74.5762 164.076 73.9295 163.427 73.1318 163.427C72.3341 163.427 71.6875 164.076 71.6875 164.878C71.6875 165.679 72.3341 166.328 73.1318 166.328Z" fill="#E6E6E6"/>
<path d="M192.527 274.657C193.325 274.657 193.971 274.007 193.971 273.206C193.971 272.405 193.325 271.755 192.527 271.755C191.729 271.755 191.083 272.405 191.083 273.206C191.083 274.007 191.729 274.657 192.527 274.657Z" fill="#E6E6E6"/>
<path d="M409.652 260.632C410.45 260.632 411.096 259.982 411.096 259.181C411.096 258.38 410.45 257.73 409.652 257.73C408.854 257.73 408.208 258.38 408.208 259.181C408.208 259.982 408.854 260.632 409.652 260.632Z" fill="#E6E6E6"/>
<path d="M341.77 303.673C342.568 303.673 343.215 303.024 343.215 302.222C343.215 301.421 342.568 300.771 341.77 300.771C340.973 300.771 340.326 301.421 340.326 302.222C340.326 303.024 340.973 303.673 341.77 303.673Z" fill="#E6E6E6"/>
<path d="M271 251.444C271.798 251.444 272.444 250.794 272.444 249.993C272.444 249.191 271.798 248.542 271 248.542C270.202 248.542 269.556 249.191 269.556 249.993C269.556 250.794 270.202 251.444 271 251.444Z" fill="#E6E6E6"/>
<path d="M179.528 108.295C180.325 108.295 180.972 107.646 180.972 106.845C180.972 106.043 180.325 105.394 179.528 105.394C178.73 105.394 178.083 106.043 178.083 106.845C178.083 107.646 178.73 108.295 179.528 108.295Z" fill="#E6E6E6"/>
<path d="M191.083 36.7214C191.88 36.7214 192.527 36.0718 192.527 35.2705C192.527 34.4692 191.88 33.8197 191.083 33.8197C190.285 33.8197 189.638 34.4692 189.638 35.2705C189.638 36.0718 190.285 36.7214 191.083 36.7214Z" fill="#E6E6E6"/>
<path d="M184.342 338.009C185.14 338.009 185.787 337.36 185.787 336.559C185.787 335.757 185.14 335.108 184.342 335.108C183.545 335.108 182.898 335.757 182.898 336.559C182.898 337.36 183.545 338.009 184.342 338.009Z" fill="#E6E6E6"/>
<path d="M113.09 307.542C113.888 307.542 114.535 306.892 114.535 306.091C114.535 305.29 113.888 304.64 113.09 304.64C112.293 304.64 111.646 305.29 111.646 306.091C111.646 306.892 112.293 307.542 113.09 307.542Z" fill="#E6E6E6"/>
<path d="M338.882 255.312C339.68 255.312 340.326 254.663 340.326 253.861C340.326 253.06 339.68 252.411 338.882 252.411C338.084 252.411 337.438 253.06 337.438 253.861C337.438 254.663 338.084 255.312 338.882 255.312Z" fill="#E6E6E6"/>
<path d="M71.4315 113.567C73.8245 113.567 75.7644 111.618 75.7644 109.215C75.7644 106.811 73.8245 104.862 71.4315 104.862C69.0385 104.862 67.0986 106.811 67.0986 109.215C67.0986 111.618 69.0385 113.567 71.4315 113.567Z" fill="white"/>
<path d="M169.418 176.001C169.418 189 149.41 219.291 143.563 227.866C143.386 228.125 143.15 228.337 142.873 228.484C142.597 228.63 142.289 228.707 141.976 228.707C141.664 228.707 141.356 228.63 141.079 228.484C140.803 228.337 140.566 228.125 140.39 227.866C134.543 219.291 114.535 189 114.535 176.001C114.535 172.381 115.244 168.796 116.624 165.452C118.003 162.107 120.024 159.068 122.572 156.509C125.12 153.949 128.145 151.919 131.475 150.533C134.804 149.148 138.373 148.435 141.976 148.435C145.58 148.435 149.148 149.148 152.478 150.533C155.807 151.919 158.832 153.949 161.38 156.509C163.929 159.068 165.95 162.107 167.329 165.452C168.708 168.796 169.418 172.381 169.418 176.001Z" fill="white"/>
<path d="M141.976 188.091C149.687 188.091 155.938 181.812 155.938 174.066C155.938 166.321 149.687 160.042 141.976 160.042C134.265 160.042 128.015 166.321 128.015 174.066C128.015 181.812 134.265 188.091 141.976 188.091Z" fill="white"/>
<path d="M141.736 243.706C150.643 243.706 157.864 242.298 157.864 240.562C157.864 238.826 150.643 237.419 141.736 237.419C132.829 237.419 125.608 238.826 125.608 240.562C125.608 242.298 132.829 243.706 141.736 243.706Z" fill="white"/>
<path d="M393.258 154.249C393.136 154.486 393.033 154.734 392.95 154.988L369.946 161.409L365.8 157.333L358.86 162.814L365.501 170.745C366.037 171.386 366.766 171.834 367.578 172.023C368.39 172.212 369.241 172.132 370.004 171.794L394.853 160.775C395.696 161.363 396.698 161.679 397.724 161.681C398.75 161.683 399.753 161.372 400.598 160.788C401.444 160.203 402.092 159.375 402.458 158.411C402.823 157.448 402.887 156.396 402.643 155.394C402.398 154.393 401.856 153.491 401.088 152.807C400.32 152.123 399.363 151.69 398.345 151.565C397.326 151.441 396.294 151.631 395.385 152.11C394.476 152.59 393.735 153.335 393.258 154.249Z" fill="#FFB8B8"/>
<path d="M369.135 161.785L360.5 168.536C360.255 168.728 359.971 168.865 359.668 168.936C359.365 169.008 359.05 169.014 358.745 168.952C358.439 168.891 358.151 168.764 357.899 168.581C357.647 168.397 357.437 168.161 357.284 167.889L351.917 158.349C350.946 157.081 350.515 155.477 350.718 153.89C350.922 152.303 351.744 150.862 353.004 149.883C354.264 148.903 355.859 148.466 357.44 148.667C359.02 148.867 360.457 149.689 361.435 150.952L369.301 158.494C369.526 158.71 369.702 158.972 369.817 159.262C369.932 159.553 369.984 159.865 369.968 160.177C369.952 160.49 369.87 160.795 369.726 161.072C369.582 161.35 369.381 161.593 369.135 161.785Z" fill="white"/>
<path d="M395.465 151.055L404.221 155.013C404.588 155.178 404.874 155.484 405.016 155.861C405.159 156.239 405.146 156.658 404.981 157.026L403.945 159.341C404.067 159.397 404.162 159.498 404.209 159.624C404.257 159.75 404.253 159.889 404.198 160.012L403.784 160.938C403.728 161.061 403.627 161.156 403.502 161.204C403.377 161.252 403.238 161.248 403.115 161.193L402.701 162.119C402.823 162.174 402.918 162.276 402.965 162.402C403.013 162.528 403.009 162.667 402.954 162.79L402.54 163.716C402.484 163.838 402.383 163.934 402.258 163.982C402.133 164.029 401.994 164.025 401.871 163.97L396.273 176.47C396.108 176.838 395.804 177.126 395.428 177.269C395.052 177.412 394.635 177.4 394.268 177.234L385.512 173.277C385.146 173.111 384.859 172.806 384.717 172.428C384.574 172.05 384.587 171.631 384.752 171.263L393.46 151.819C393.625 151.451 393.929 151.164 394.305 151.02C394.681 150.877 395.098 150.89 395.465 151.055Z" fill="#3F3D56"/>
<path d="M387.102 172.045L394.126 175.223C394.478 175.381 394.878 175.393 395.239 175.256C395.6 175.119 395.892 174.844 396.052 174.492L399.296 167.243L400.423 164.73L403.359 158.171C403.516 157.818 403.527 157.417 403.391 157.056C403.255 156.695 402.982 156.402 402.631 156.242L400.423 155.242L395.602 153.064C395.25 152.907 394.85 152.895 394.49 153.033C394.13 153.171 393.839 153.447 393.682 153.8L390.842 160.141L387.607 167.359L386.374 170.116C386.217 170.469 386.205 170.87 386.341 171.231C386.478 171.593 386.751 171.886 387.102 172.045Z" fill="#F2F2F2"/>
<path d="M372.424 261.863L378.326 261.862L381.134 238.993L372.423 238.994L372.424 261.863Z" fill="#FFB8B8"/>
<path d="M370.919 259.927L382.543 259.927C383.515 259.926 384.479 260.119 385.378 260.493C386.276 260.867 387.093 261.415 387.781 262.106C388.469 262.797 389.014 263.617 389.387 264.52C389.759 265.423 389.951 266.39 389.951 267.367V267.609L370.919 267.61L370.919 259.927Z" fill="#2F2E41"/>
<path d="M387.83 260.412L393.732 260.411L396.541 237.543L387.829 237.543L387.83 260.412Z" fill="#FFB8B8"/>
<path d="M386.325 258.476L397.948 258.476C398.921 258.476 399.885 258.668 400.784 259.042C401.682 259.416 402.499 259.964 403.187 260.655C403.875 261.346 404.42 262.166 404.792 263.069C405.165 263.972 405.356 264.939 405.356 265.917V266.158L386.325 266.159L386.325 258.476Z" fill="#2F2E41"/>
<path d="M345.949 208.199C347.207 211.944 349.592 215.203 352.775 217.526C355.958 219.849 359.78 221.12 363.714 221.165L364.013 221.17C367.06 221.257 370.637 220.27 374.147 218.853C381.079 216.053 387.738 211.57 389.504 210.337L386.51 239.252L385.297 250.974C385.266 251.278 385.299 251.584 385.393 251.874C385.488 252.163 385.641 252.43 385.845 252.657C386.048 252.883 386.296 253.064 386.573 253.188C386.85 253.313 387.15 253.377 387.454 253.378H394.93C395.41 253.378 395.876 253.219 396.255 252.925C396.635 252.631 396.907 252.219 397.029 251.753L409.373 204.529C409.743 203.115 409.773 201.633 409.46 200.206C409.147 198.779 408.5 197.447 407.572 196.32C406.645 195.194 405.464 194.306 404.127 193.729C402.79 193.153 401.336 192.904 399.884 193.004L374.243 194.769L376.034 187.573L353.147 186.045L353.079 186.094C352.531 186.495 351.996 186.916 351.486 187.356C350.21 188.44 349.079 189.685 348.121 191.06C346.406 193.528 345.313 196.376 344.935 199.361C344.557 202.346 344.905 205.379 345.949 208.199Z" fill="#2F2E41"/>
<path d="M345.949 208.199C347.207 211.944 349.592 215.203 352.775 217.526C355.958 219.849 359.78 221.12 363.714 221.165C367.476 219.252 371.106 217.089 374.58 214.689L374.147 218.853L370.372 255.327C370.342 255.63 370.375 255.937 370.469 256.226C370.563 256.516 370.717 256.783 370.92 257.009C371.123 257.235 371.372 257.417 371.649 257.541C371.926 257.665 372.226 257.73 372.529 257.73H380.006C380.485 257.731 380.951 257.571 381.331 257.277C381.711 256.983 381.983 256.571 382.105 256.105L386.51 239.252L394.449 208.881C394.819 207.468 394.849 205.986 394.536 204.559C394.222 203.131 393.575 201.799 392.648 200.673C391.721 199.547 390.54 198.658 389.203 198.082C387.866 197.505 386.411 197.257 384.96 197.357L359.319 199.122L361.11 191.926L348.12 191.06C346.406 193.528 345.313 196.376 344.935 199.361C344.557 202.346 344.905 205.379 345.949 208.199Z" fill="#2F2E41"/>
<path d="M351.453 189.024L351.281 189.003L347.287 169.279C347.253 169.108 343.988 152.095 353.997 143.201L354.171 141.984C354.215 141.672 354.327 141.374 354.497 141.11C354.668 140.846 354.893 140.622 355.158 140.454C355.423 140.286 355.721 140.177 356.031 140.136C356.342 140.095 356.658 140.122 356.957 140.215L366.386 143.153C366.919 143.318 367.369 143.684 367.64 144.174C367.911 144.665 367.982 145.242 367.839 145.784L366.922 149.286C368.193 150.786 383.154 168.878 377.943 182.818L375.609 191.983L351.453 189.024Z" fill="white"/>
<path d="M390.603 173.63C390.378 173.773 390.164 173.933 389.964 174.109L366.904 167.891L365.397 162.265L356.646 163.44L358.352 173.661C358.489 174.487 358.89 175.245 359.494 175.823C360.097 176.4 360.871 176.766 361.698 176.864L388.674 180.065C389.102 181.002 389.805 181.785 390.687 182.311C391.57 182.837 392.591 183.081 393.615 183.009C394.639 182.938 395.616 182.556 396.419 181.913C397.221 181.27 397.809 180.396 398.105 179.409C398.401 178.422 398.391 177.368 398.076 176.387C397.761 175.406 397.156 174.544 396.341 173.917C395.527 173.29 394.542 172.926 393.517 172.875C392.492 172.824 391.476 173.087 390.603 173.63Z" fill="#FFB8B8"/>
<path d="M366.015 167.801L355.163 169.205C354.855 169.245 354.541 169.218 354.244 169.125C353.946 169.032 353.672 168.876 353.441 168.667C353.209 168.459 353.024 168.202 352.9 167.915C352.776 167.629 352.715 167.318 352.721 167.006L352.928 156.05C352.733 154.462 353.173 152.861 354.152 151.598C355.13 150.336 356.568 149.515 358.148 149.315C359.728 149.115 361.323 149.553 362.583 150.533C363.842 151.512 364.664 152.954 364.867 154.541L367.824 165.052C367.908 165.353 367.927 165.668 367.879 165.977C367.832 166.286 367.718 166.581 367.546 166.842C367.375 167.103 367.149 167.324 366.885 167.489C366.621 167.655 366.324 167.761 366.015 167.801Z" fill="white"/>
<path d="M362.961 137.538C369.491 137.538 374.785 132.22 374.785 125.66C374.785 119.1 369.491 113.782 362.961 113.782C356.43 113.782 351.136 119.1 351.136 125.66C351.136 132.22 356.43 137.538 362.961 137.538Z" fill="#FFB8B8"/>
<path d="M362.339 126.652L360.858 123.944C358.054 135.421 363.007 144.919 363.007 144.919L343.783 135.924L343.966 132.732L342.063 134.9L339.33 133.387L338.969 131.317L336.906 131.831L344.437 118.102C351.746 105.038 362.373 110.026 362.373 110.026C379.278 109.219 377.214 125.973 377.214 125.973L362.339 126.652Z" fill="#2F2E41"/>
<path d="M227.736 215.167C230.462 213.412 227.147 203.33 220.331 192.65C213.515 181.969 205.779 174.734 203.053 176.49C200.327 178.245 203.642 188.327 210.458 199.007C217.274 209.688 225.01 216.923 227.736 215.167Z" fill="#3F3D56"/>
</g>
<defs>
<clipPath id="clip0_18_743">
<rect width="473" height="369" fill="white" transform="translate(0 0.5)"/>
</clipPath>
</defs>
</svg>
