<svg width="339" height="330" viewBox="0 0 339 330" fill="none" xmlns="http://www.w3.org/2000/svg">
<g clip-path="url(#clip0_18_1165)">
<path d="M318.934 91.0811C315.761 85.3465 312.239 79.8118 308.391 74.5081C305.694 70.7872 302.844 67.1904 299.841 63.7178H299.834C294.401 57.4313 288.492 51.5736 282.161 46.1966C280.865 45.0943 279.551 44.0145 278.22 42.9573C266.207 33.3842 252.884 25.5868 238.659 19.8033L238.786 40.6233L240.147 277.959H122.172L115.537 41.0711L116.031 20.5836C58.1915 44.9492 17.5796 102.237 17.5796 169.029C17.5688 182.815 19.3248 196.546 22.8045 209.884C24.2743 215.522 26.0537 221.075 28.1346 226.517C28.8858 228.492 29.6784 230.45 30.5123 232.39C30.9142 233.335 31.3236 234.271 31.7481 235.204C32.2927 236.423 32.8599 237.639 33.4421 238.839C33.8929 239.783 34.3561 240.721 34.8319 241.653C35.4442 242.876 36.0765 244.089 36.7288 245.291C37.2322 246.236 37.7505 247.172 38.2764 248.105C46.7604 263.136 57.5942 276.709 70.3659 288.306C74.0057 291.613 77.7932 294.748 81.7285 297.712C109.573 318.669 143.46 330 178.29 330C213.119 330 247.007 318.669 274.851 297.712C276.992 296.101 279.089 294.437 281.143 292.719C282.506 291.583 283.847 290.425 285.166 289.246C285.515 288.934 285.864 288.622 286.21 288.306C297.985 277.614 308.118 265.24 316.282 251.582C319.281 246.575 321.999 241.405 324.426 236.096C325.068 234.697 325.69 233.284 326.293 231.86C329.065 225.328 331.396 218.617 333.272 211.773C333.561 210.715 333.84 209.655 334.109 208.59V208.586C334.154 208.402 334.203 208.214 334.248 208.029C334.526 206.908 334.793 205.779 335.048 204.651V204.647C335.875 201.009 336.572 197.327 337.141 193.601C337.212 193.123 337.283 192.645 337.351 192.167C337.377 191.994 337.404 191.821 337.422 191.648V191.644C337.828 188.766 338.157 185.867 338.41 182.946C338.801 178.36 338.998 173.721 339 169.029C339.043 141.759 332.136 114.93 318.934 91.0811Z" fill="#F2F2F2"/>
<path d="M303.151 266.198C312.664 253.324 316.322 235.191 308.923 220.993C301.983 236.963 289.628 249.959 274.042 257.683C268.021 260.64 261.016 263.301 258.229 269.41C256.495 273.212 256.825 277.7 258.219 281.64C259.614 285.579 261.985 289.084 264.331 292.54L264.455 293.576C279.225 287.442 293.639 279.072 303.151 266.198Z" fill="#E6E6E6"/>
<path d="M308.607 221.107C308.181 234.357 303.597 247.135 295.508 257.627C293.806 259.917 291.755 261.924 289.43 263.574C287.113 265.108 284.428 265.992 281.654 266.135C279.07 266.321 276.406 266.211 273.913 267.022C272.642 267.456 271.478 268.154 270.496 269.071C269.514 269.987 268.737 271.101 268.215 272.34C266.835 275.392 266.631 278.759 266.547 282.059C266.453 285.723 266.413 289.53 264.688 292.86C264.479 293.264 265.116 293.565 265.325 293.162C268.327 287.368 266.378 280.592 268.167 274.5C269.001 271.658 270.696 269.051 273.529 267.912C276.006 266.915 278.754 267.027 281.371 266.861C284.079 266.762 286.721 265.999 289.067 264.641C291.469 263.115 293.594 261.19 295.351 258.95C299.388 253.97 302.617 248.386 304.921 242.401C307.589 235.585 309.073 228.363 309.309 221.046C309.324 220.593 308.621 220.657 308.607 221.107Z" fill="white"/>
<path d="M298.311 254.403C300.253 255.523 302.529 255.916 304.733 255.511C306.937 255.105 308.926 253.928 310.343 252.19C310.629 251.838 310.095 251.376 309.809 251.729C308.492 253.351 306.64 254.447 304.586 254.82C302.533 255.193 300.414 254.819 298.612 253.765C298.221 253.536 297.921 254.175 298.311 254.403Z" fill="white"/>
<path d="M282.976 266.214C281.747 261.794 282.226 257.072 284.318 252.99C284.526 252.586 283.889 252.284 283.681 252.688C281.512 256.94 281.023 261.855 282.313 266.452C282.436 266.89 283.099 266.65 282.976 266.214Z" fill="white"/>
<path d="M306.655 235.618C305.814 235.341 305.054 234.86 304.444 234.216C303.835 233.573 303.394 232.788 303.162 231.931C303.045 231.492 302.382 231.733 302.499 232.169C302.759 233.114 303.247 233.98 303.919 234.693C304.591 235.405 305.427 235.942 306.354 236.256C306.439 236.293 306.534 236.296 306.622 236.265C306.709 236.234 306.781 236.171 306.823 236.088C306.862 236.003 306.867 235.907 306.836 235.819C306.804 235.731 306.739 235.659 306.655 235.618Z" fill="white"/>
<path d="M255.972 209.694C256.038 209.971 256.103 210.247 256.165 210.528C257.028 214.25 257.588 218.035 257.839 221.848C257.863 222.142 257.883 222.441 257.899 222.735C258.406 231.926 257.205 241.132 254.357 249.884C253.22 253.365 251.821 256.755 250.171 260.024C247.892 264.539 245.063 269.252 244.425 274.113C244.353 274.62 244.312 275.13 244.302 275.642L263.183 293.647C263.247 293.666 263.306 293.69 263.37 293.71L264.091 294.463C264.188 294.301 264.285 294.13 264.382 293.967C264.438 293.873 264.49 293.775 264.547 293.681C264.583 293.617 264.62 293.553 264.656 293.497C264.668 293.476 264.68 293.454 264.688 293.437C264.725 293.382 264.753 293.326 264.785 293.275C265.33 292.322 265.869 291.363 266.402 290.399C266.406 290.395 266.406 290.395 266.406 290.386C270.449 283.03 273.915 275.272 276.095 267.233C276.161 266.991 276.23 266.745 276.287 266.495C277.25 262.866 277.915 259.164 278.275 255.427C278.466 253.38 278.553 251.324 278.537 249.268C278.483 243.956 277.596 238.685 275.907 233.649C272.539 223.61 266.004 214.761 256.687 210.048C256.449 209.927 256.215 209.811 255.972 209.694Z" fill="#E6E6E6"/>
<path d="M255.786 209.975C263.41 220.811 267.432 233.778 267.279 247.034C267.297 249.888 266.865 252.727 266.001 255.447C265.072 258.069 263.46 260.394 261.332 262.181C259.38 263.887 257.187 265.406 255.684 267.557C254.931 268.67 254.421 269.93 254.188 271.254C253.955 272.578 254.004 273.936 254.331 275.24C255.064 278.509 256.925 281.32 258.841 284.006C260.969 286.988 263.225 290.051 263.85 293.751C263.925 294.199 264.615 294.055 264.54 293.608C263.453 287.171 257.824 282.936 255.591 276.994C254.549 274.221 254.335 271.117 255.912 268.499C257.292 266.21 259.552 264.642 261.543 262.932C263.645 261.219 265.296 259.017 266.353 256.517C267.353 253.851 267.893 251.033 267.95 248.185C268.179 241.774 267.401 235.368 265.643 229.2C263.676 222.149 260.52 215.487 256.31 209.502C256.049 209.132 255.527 209.607 255.786 209.975Z" fill="white"/>
<path d="M267.579 242.768C269.803 242.492 271.857 241.433 273.373 239.78C274.889 238.128 275.769 235.989 275.857 233.746C275.873 233.292 275.169 233.246 275.153 233.7C275.076 235.789 274.256 237.781 272.84 239.317C271.425 240.853 269.509 241.832 267.436 242.077C266.986 242.131 267.132 242.822 267.579 242.768Z" fill="white"/>
<path d="M262.435 261.447C258.797 258.659 256.341 254.6 255.558 250.079C255.481 249.631 254.791 249.775 254.868 250.222C255.691 254.925 258.255 259.144 262.048 262.037C262.41 262.312 262.795 261.721 262.435 261.447Z" fill="white"/>
<path d="M262.95 222.738C262.112 223.025 261.216 223.098 260.342 222.952C259.469 222.806 258.645 222.445 257.945 221.901C257.587 221.621 257.203 222.213 257.558 222.491C258.334 223.088 259.244 223.486 260.209 223.649C261.174 223.813 262.164 223.738 263.093 223.429C263.183 223.408 263.261 223.353 263.312 223.275C263.363 223.198 263.383 223.104 263.367 223.012C263.347 222.921 263.293 222.841 263.215 222.789C263.137 222.738 263.042 222.72 262.95 222.738Z" fill="white"/>
<path d="M7.50256 194.096C-0.933742 180.49 -3.10868 162.119 5.41821 148.571C11.039 165.052 22.2991 179.012 37.2062 187.979C42.9677 191.416 49.7333 194.638 52.0155 200.954C53.4356 204.884 52.7422 209.331 51.0331 213.144C49.3239 216.956 46.6761 220.257 44.0572 223.511L43.85 224.533C29.6258 217.217 15.9389 207.701 7.50256 194.096Z" fill="#E6E6E6"/>
<path d="M5.72358 148.71C5.07335 161.951 8.60487 175.06 15.8165 186.176C17.3266 188.596 19.2082 190.763 21.392 192.597C23.577 194.314 26.1812 195.414 28.9341 195.783C31.4941 196.178 34.1584 196.285 36.5778 197.297C37.8086 197.833 38.9124 198.624 39.8167 199.617C40.721 200.611 41.4054 201.784 41.8251 203.061C42.9534 206.216 42.8828 209.588 42.6994 212.884C42.4957 216.543 42.2262 220.341 43.6756 223.8C43.8512 224.22 43.1915 224.468 43.0162 224.049C40.4945 218.03 42.9869 211.435 41.6983 205.218C41.0969 202.317 39.6192 199.581 36.888 198.215C34.4997 197.02 31.7524 196.907 29.157 196.53C26.4661 196.21 23.8944 195.235 21.6665 193.69C19.3966 191.974 17.4347 189.883 15.8651 187.507C12.2462 182.215 9.48056 176.386 7.66943 170.233C5.56352 163.223 4.67041 155.904 5.02872 148.592C5.05108 148.139 5.7458 148.26 5.72358 148.71Z" fill="white"/>
<path d="M13.284 182.733C11.2578 183.692 8.95732 183.898 6.79339 183.315C4.62945 182.732 2.74299 181.397 1.47091 179.549C1.2148 179.174 1.78422 178.758 2.04067 179.133C3.22206 180.856 4.97943 182.099 6.99559 182.638C9.01175 183.177 11.1539 182.977 13.0354 182.073C13.4445 181.877 13.6908 182.538 13.284 182.733Z" fill="white"/>
<path d="M27.6098 195.754C29.1936 191.448 29.099 186.703 27.345 182.465C27.1709 182.045 27.8305 181.796 28.0045 182.215C29.8215 186.63 29.9099 191.568 28.2519 196.045C28.0936 196.471 27.4523 196.178 27.6098 195.754Z" fill="white"/>
<path d="M6.49164 163.332C7.3528 163.124 8.14908 162.706 8.80895 162.114C9.46881 161.523 9.97161 160.776 10.2722 159.942C10.425 159.513 11.0661 159.807 10.9143 160.232C10.5779 161.153 10.0216 161.977 9.29401 162.632C8.56641 163.288 7.68963 163.755 6.74029 163.992C6.65268 164.022 6.55698 164.018 6.47264 163.979C6.38831 163.941 6.32166 163.872 6.28625 163.787C6.25377 163.699 6.25712 163.602 6.29558 163.517C6.33403 163.432 6.40449 163.365 6.49164 163.332Z" fill="white"/>
<path d="M59.1105 141.619C59.0226 141.89 58.9348 142.16 58.8505 142.435C57.6882 146.074 56.8231 149.801 56.2636 153.58C56.2157 153.872 56.1715 154.168 56.1321 154.46C54.8809 163.58 55.331 172.852 57.4594 181.807C58.3096 185.37 59.4292 188.862 60.8084 192.255C62.7135 196.94 65.1512 201.868 65.3927 206.765C65.4236 207.276 65.423 207.788 65.3907 208.299L45.1115 224.707C45.0467 224.721 44.9855 224.74 44.9205 224.755L44.1407 225.447C44.0573 225.277 43.9746 225.099 43.8912 224.929C43.8425 224.83 43.7982 224.728 43.7495 224.63C43.7184 224.563 43.6875 224.496 43.6557 224.438C43.6453 224.416 43.6351 224.393 43.6284 224.376C43.5965 224.317 43.5731 224.259 43.545 224.206C43.0796 223.211 42.6202 222.212 42.1671 221.208C42.1634 221.203 42.1634 221.203 42.1642 221.195C38.7309 213.534 35.906 205.519 34.3855 197.33C34.3398 197.083 34.2902 196.832 34.2538 196.578C33.5888 192.883 33.2265 189.139 33.1705 185.385C33.1464 183.329 33.2263 181.273 33.4097 179.225C33.894 173.935 35.2059 168.754 37.2976 163.872C41.4688 154.14 48.7008 145.853 58.3689 141.913C58.6162 141.813 58.8593 141.715 59.1105 141.619Z" fill="#E6E6E6"/>
<path d="M59.2728 141.914C50.7948 152.094 45.7346 164.691 44.8111 177.915C44.5618 180.758 44.7615 183.623 45.4029 186.404C46.1152 189.093 47.5333 191.542 49.5099 193.496C51.3164 195.355 53.3792 197.048 54.703 199.315C55.3634 200.485 55.7694 201.782 55.8942 203.12C56.0191 204.459 55.8601 205.809 55.4276 207.081C54.4324 210.281 52.3488 212.931 50.2213 215.452C47.8592 218.25 45.3614 221.12 44.439 224.756C44.3272 225.197 43.6512 224.998 43.7628 224.558C45.3677 218.231 51.3219 214.468 54.0297 208.727C55.2933 206.049 55.7585 202.972 54.3988 200.235C53.2098 197.841 51.0841 196.094 49.2388 194.227C47.2826 192.349 45.8154 190.02 44.9651 187.443C44.1844 184.703 43.8748 181.851 44.0496 179.007C44.3411 172.6 45.6366 166.278 47.8888 160.273C50.4212 153.406 54.1078 147.023 58.7891 141.401C59.079 141.053 59.5608 141.569 59.2728 141.914Z" fill="white"/>
<path d="M44.8582 173.639C42.6641 173.183 40.7034 171.96 39.3262 170.189C37.9491 168.419 37.2452 166.215 37.3402 163.973C37.345 163.881 37.3849 163.795 37.4517 163.733C37.5185 163.67 37.6069 163.636 37.6983 163.638C37.7896 163.639 37.8769 163.676 37.9416 163.741C38.0063 163.806 38.0434 163.893 38.0451 163.984C37.9527 166.072 38.6086 168.125 39.8943 169.771C41.1801 171.417 43.011 172.549 45.0567 172.962C45.5011 173.052 45.3001 173.729 44.8582 173.639Z" fill="white"/>
<path d="M48.47 192.674C52.3225 190.192 55.0993 186.346 56.2467 181.904C56.36 181.464 57.0361 181.663 56.9229 182.103C55.7203 186.723 52.8225 190.719 48.8078 193.294C48.4249 193.539 48.0892 192.918 48.47 192.674Z" fill="white"/>
<path d="M51.0969 154.052C51.9091 154.406 52.7964 154.552 53.6789 154.477C54.5615 154.403 55.4118 154.11 56.1534 153.625C56.5329 153.375 56.8682 153.996 56.4912 154.244C55.6693 154.776 54.7299 155.099 53.755 155.183C52.7801 155.268 51.7993 155.112 50.8985 154.729C50.8105 154.7 50.7369 154.639 50.6925 154.558C50.6481 154.476 50.6364 154.381 50.6596 154.291C50.6863 154.202 50.7472 154.126 50.8291 154.082C50.911 154.037 51.0073 154.026 51.0969 154.052Z" fill="white"/>
<path d="M164.107 55.2156C176.439 55.2156 186.435 45.2029 186.435 32.8516C186.435 20.5004 176.439 10.4877 164.107 10.4877C151.776 10.4877 141.78 20.5004 141.78 32.8516C141.78 45.2029 151.776 55.2156 164.107 55.2156Z" fill="#FF6584"/>
<path d="M232.47 31.6846C230.458 29.5558 228.334 27.5363 226.107 25.6348C221.757 21.9402 216.942 18.7986 211.574 16.8196C209.553 16.0721 207.465 15.5215 205.339 15.1755C205.083 15.1341 204.832 15.0927 204.576 15.0589C204.557 15.057 204.538 15.057 204.52 15.0589C204.48 15.0477 204.44 15.0402 204.4 15.0363C203.877 14.9686 203.355 14.9159 202.829 14.8783C199.997 14.6897 197.153 14.9461 194.4 15.6383C192.803 16.0419 191.245 16.5858 189.743 17.2636C188.238 18.0014 186.779 18.8294 185.374 19.743C184.62 20.2021 183.842 20.6227 183.045 21.0033C180.719 22.1076 178.255 22.8971 175.721 23.351C174.009 23.6586 172.276 23.8297 170.537 23.8627C169.027 23.8928 167.604 23.9455 166.172 24.491C164.645 25.0658 163.273 25.9906 162.166 27.1913C161.06 28.392 160.248 29.8354 159.798 31.4062C159.763 31.5457 159.773 31.6929 159.827 31.8262C159.881 31.9596 159.976 32.0721 160.099 32.1473C160.485 32.4258 160.861 32.7418 161.271 32.9901C161.632 33.1553 162.017 33.2607 162.412 33.3024C163.058 33.4378 163.706 33.5695 164.354 33.6974C166.74 34.1715 169.135 34.5916 171.54 34.9578C176.378 35.6915 181.244 36.2082 186.137 36.5079C186.167 36.5123 186.197 36.5148 186.227 36.5154C191.755 36.8496 197.296 36.9036 202.829 36.6772C203.667 36.6433 204.501 36.6019 205.339 36.553C208.828 36.3574 212.309 36.0489 215.781 35.6275C218.992 35.2362 222.192 34.7509 225.378 34.1715C227.654 33.7576 229.922 33.2961 232.181 32.7869C232.29 32.7544 232.39 32.6941 232.469 32.6119C232.549 32.5296 232.606 32.4282 232.635 32.3174C232.664 32.2066 232.664 32.0901 232.635 31.9793C232.606 31.8684 232.549 31.7669 232.47 31.6846Z" fill="#E6E6E6"/>
<path d="M186.062 61.5048C182.829 58.0413 179.268 54.9012 175.428 52.1291C174.154 51.2336 172.843 50.3909 171.495 49.6196C169.842 48.6637 168.125 47.8227 166.356 47.1026C165.962 46.9408 165.564 46.7865 165.166 46.6398C162.904 45.8006 160.557 45.2102 158.168 44.879C158.149 44.8753 158.13 44.879 158.112 44.8753C158.074 44.8678 158.033 44.8602 157.995 44.8527C156.837 44.7023 155.67 44.6306 154.502 44.6382C153.664 44.6382 152.823 44.6834 151.989 44.7662C150.642 44.8991 149.306 45.1305 147.992 45.4584C147.342 45.6202 146.696 45.8083 146.062 46.0228C145.136 46.328 144.227 46.6821 143.338 47.0838C143.323 47.0913 143.312 47.0951 143.297 47.1026C141.806 47.8333 140.361 48.6551 138.97 49.5631C138.94 49.5819 138.906 49.6008 138.876 49.6196C137.296 50.5661 135.625 51.3502 133.888 51.9597C132.396 52.4821 130.867 52.8871 129.313 53.1712C127.601 53.4796 125.868 53.6494 124.129 53.6791C122.619 53.7092 121.195 53.7619 119.768 54.3112C118.24 54.8859 116.868 55.8105 115.76 57.0112C114.653 58.2119 113.841 59.6554 113.39 61.2263C113.355 61.3658 113.366 61.5128 113.42 61.646C113.474 61.7792 113.568 61.8918 113.69 61.9675C114.077 62.2459 114.457 62.5582 114.862 62.8065C115.223 62.9729 115.609 63.0784 116.004 63.1188C116.65 63.2542 117.296 63.3897 117.946 63.5176C120.331 63.9916 122.728 64.4105 125.136 64.7742C128.437 65.2746 131.753 65.6747 135.082 65.9744C136.66 66.1211 138.239 66.2415 139.819 66.3356C143.872 66.5801 147.928 66.6754 151.989 66.6215C152.827 66.6102 153.664 66.5914 154.502 66.5651C159.475 66.4183 164.433 66.0446 169.377 65.4439C174.886 64.7762 180.359 63.8281 185.772 62.6033C185.882 62.5712 185.981 62.5113 186.061 62.4294C186.14 62.3475 186.198 62.2463 186.227 62.1358C186.256 62.0253 186.256 61.9091 186.227 61.7986C186.198 61.688 186.141 61.5868 186.062 61.5048Z" fill="#E6E6E6"/>
<path d="M130.408 1.48479L150.078 273.749L110.738 277.246V4.94876C115.426 1.28107 122.155 0.70725 130.408 1.48479Z" fill="#CCCCCC"/>
<path d="M227.503 1.48479L207.833 273.749L247.174 277.246V4.94876C242.486 1.28107 235.757 0.70725 227.503 1.48479Z" fill="#CCCCCC"/>
<path d="M248.099 5.06759C246.879 2.06967 244.283 0 241.282 0H116.211C112.037 0 108.646 4.01054 108.646 8.94489V279.553C108.609 282.056 109.544 284.476 111.252 286.304C112.146 287.244 113.278 287.924 114.528 288.271C115.076 288.423 115.642 288.499 116.211 288.498H241.282C241.85 288.499 242.416 288.423 242.965 288.271C246.33 287.365 248.847 283.803 248.847 279.553V8.9449C248.85 7.61621 248.596 6.29946 248.099 5.06759ZM246.338 279.553C246.338 282.848 244.069 285.531 241.282 285.531H116.211C113.901 285.531 111.944 283.688 111.346 281.178C111.219 280.646 111.154 280.1 111.155 279.553V8.9449C111.155 5.64942 113.424 2.97129 116.211 2.97129H241.282C241.795 2.97088 242.304 3.06264 242.784 3.24221C244.839 3.99724 246.338 6.26677 246.338 8.9449V279.553Z" fill="#CCCCCC"/>
<path d="M247.592 82.2554H109.901V84.7706H247.592V82.2554Z" fill="#CCCCCC"/>
<path d="M247.592 30.3354H109.901V32.8506H247.592V30.3354Z" fill="#CCCCCC"/>
<path d="M247.592 124.175H109.901V126.69H247.592V124.175Z" fill="#CCCCCC"/>
<path d="M154.583 1.12869H152.072V159.806H154.583V1.12869Z" fill="#CCCCCC"/>
<path d="M205.421 1.12869H202.91V159.806H205.421V1.12869Z" fill="#CCCCCC"/>
<path d="M263.286 272.779H98.391C95.3955 272.782 92.5237 273.976 90.4055 276.097C88.2874 278.219 87.0958 281.095 87.0923 284.096C87.0908 285.539 87.3676 286.968 87.9074 288.306C88.7462 290.404 90.1931 292.203 92.0615 293.47C93.93 294.737 96.1345 295.415 98.391 295.417H263.286C265.258 295.416 267.196 294.898 268.907 293.915C270.617 292.931 272.041 291.516 273.037 289.811C273.32 289.329 273.566 288.826 273.773 288.306C274.313 286.968 274.59 285.539 274.588 284.096C274.584 281.095 273.391 278.219 271.273 276.097C269.154 273.975 266.282 272.782 263.286 272.779Z" fill="#CCCCCC"/>
<path d="M247.592 153.938H110.738V162.321H247.592V153.938Z" fill="#CCCCCC"/>
<path d="M177.909 151.422H180.421C181.642 151.422 182.812 151.908 183.676 152.773C184.539 153.638 185.024 154.811 185.024 156.034H173.306C173.306 155.428 173.425 154.828 173.656 154.269C173.888 153.71 174.227 153.201 174.654 152.773C175.082 152.345 175.589 152.005 176.148 151.773C176.706 151.542 177.305 151.422 177.909 151.422Z" fill="#CCCCCC"/>
<path d="M181.579 177.582C195.903 177.582 207.515 165.951 207.515 151.604C207.515 137.257 195.903 125.626 181.579 125.626C167.255 125.626 155.643 137.257 155.643 151.604C155.643 165.951 167.255 177.582 181.579 177.582Z" fill="#FFB8B8"/>
<path d="M152.647 126.613C152.843 123.63 154.813 120.577 161.071 118.982C161.071 118.982 171.81 105.227 186.404 112.44C186.404 112.44 193.479 111.221 198.725 118.573C198.725 118.573 203.927 115.501 206.121 120.947C206.121 120.947 212.222 132.056 209.976 143.388C207.73 154.719 206.58 156.133 206.58 156.133C206.58 156.133 209.443 132.694 192.954 134.32C176.466 135.945 163.191 130.137 159.457 142.853C156.357 153.412 156.747 158.896 156.747 158.896C156.747 158.896 146.379 148.363 149.904 140.068C151.707 135.826 152.345 131.214 152.647 126.613Z" fill="#2F2E41"/>
<path d="M111.049 293.573H254.508C253.549 282.612 252.923 240.714 252.923 237.957C252.923 225.794 242.987 212.521 242.987 212.521L239.43 210.552L209.729 201.271L202.043 191.27C201.238 190.22 200.201 189.371 199.013 188.79C197.825 188.209 196.519 187.912 195.197 187.922L170.917 188.105C168.78 188.121 166.727 188.936 165.159 190.39L150.124 204.361L128.072 214.908L128.034 214.871L127.804 215.043L124.531 217.403L122.426 218.927C122.426 218.927 116.904 225.563 112.49 245.468C111.826 248.461 111.36 287.216 111.049 293.573Z" fill="white"/>
<path d="M287.712 288.306C287.367 288.622 287.018 288.934 286.668 289.246C285.346 290.424 284.005 291.582 282.645 292.719C280.591 294.435 278.493 296.099 276.354 297.712H83.2309C79.2981 294.755 75.5106 291.619 71.8683 288.306H287.712Z" fill="#CCCCCC"/>
<path d="M216.923 290.563H145.93L147.432 283.415H215.42L216.923 290.563Z" fill="#2F2E41"/>
<path d="M281.15 259.712H262.677C262.26 259.711 261.848 259.801 261.47 259.977C261.091 260.152 260.756 260.409 260.487 260.728C260.23 260.678 259.968 260.653 259.706 260.653C259.13 260.652 258.56 260.765 258.028 260.986C257.496 261.206 257.012 261.529 256.605 261.937C256.198 262.344 255.874 262.828 255.654 263.361C255.434 263.894 255.32 264.465 255.32 265.042C255.32 265.618 255.434 266.189 255.654 266.722C255.874 267.255 256.198 267.739 256.605 268.146C257.012 268.554 257.496 268.877 258.028 269.098C258.56 269.318 259.13 269.431 259.706 269.43C260.368 269.43 261.02 269.278 261.614 268.986L261.922 272.779L263.147 287.768C263.205 287.955 263.283 288.135 263.38 288.306C263.627 288.761 263.992 289.141 264.437 289.406C264.882 289.671 265.39 289.811 265.908 289.811H277.92C278.438 289.81 278.946 289.67 279.391 289.405C279.837 289.141 280.203 288.761 280.452 288.306C280.546 288.135 280.622 287.954 280.681 287.768L283.911 263.456C284.044 263.023 284.074 262.565 283.998 262.119C283.922 261.673 283.742 261.251 283.474 260.886C283.205 260.522 282.855 260.226 282.451 260.022C282.048 259.819 281.602 259.712 281.15 259.712ZM259.706 268.178C258.876 268.177 258.081 267.846 257.495 267.258C256.908 266.67 256.579 265.873 256.579 265.042C256.579 264.211 256.908 263.413 257.495 262.825C258.081 262.237 258.876 261.907 259.706 261.906C259.762 261.906 259.815 261.921 259.871 261.925C259.748 262.43 259.763 262.959 259.916 263.456L261.239 267.76C260.773 268.031 260.244 268.175 259.706 268.178Z" fill="#3F3D56"/>
<path d="M239.426 180.165H122.487C121.483 180.167 120.519 180.568 119.809 181.279C119.099 181.991 118.699 182.955 118.697 183.962V263.001C118.698 264.007 119.098 264.972 119.808 265.684C120.519 266.395 121.482 266.796 122.487 266.797H239.426C240.431 266.796 241.394 266.395 242.105 265.684C242.816 264.972 243.215 264.007 243.216 263.001V183.962C243.215 182.955 242.815 181.991 242.104 181.279C241.394 180.568 240.431 180.167 239.426 180.165Z" fill="#3F3D56"/>
<path d="M194.126 243.497H166.769C166.382 243.497 166.011 243.652 165.738 243.926C165.465 244.201 165.312 244.573 165.312 244.96V288.246H195.587V244.96C195.587 244.768 195.55 244.578 195.476 244.4C195.403 244.222 195.295 244.061 195.159 243.925C195.024 243.789 194.863 243.681 194.685 243.608C194.508 243.534 194.318 243.497 194.126 243.497ZM180.54 268.091C179.684 268.087 178.865 267.745 178.26 267.139C177.655 266.533 177.313 265.712 177.309 264.855V259.863C177.31 259.005 177.651 258.183 178.257 257.577C178.863 256.971 179.684 256.631 180.54 256.631C181.396 256.631 182.217 256.971 182.823 257.577C183.428 258.183 183.769 259.005 183.77 259.863V264.855C183.766 265.712 183.425 266.533 182.82 267.139C182.215 267.745 181.395 268.087 180.54 268.091Z" fill="#2F2E41"/>
<path d="M165.218 286.861V291.037C165.219 291.254 165.305 291.461 165.457 291.614C165.61 291.767 165.817 291.853 166.033 291.854H194.866C195.082 291.853 195.289 291.766 195.441 291.613C195.594 291.461 195.68 291.254 195.681 291.037V286.861H165.218Z" fill="#3F3D56"/>
<path d="M236.939 262.174C237.959 262.174 238.786 261.346 238.786 260.325C238.786 259.304 237.959 258.476 236.939 258.476C235.92 258.476 235.093 259.304 235.093 260.325C235.093 261.346 235.92 262.174 236.939 262.174Z" fill="#2F2E41"/>
<path d="M137.249 257.643C137.164 257.643 137.08 257.66 137.002 257.692C136.924 257.725 136.852 257.772 136.792 257.833C136.732 257.893 136.685 257.964 136.652 258.042C136.62 258.121 136.603 258.205 136.603 258.29V261.62C136.604 261.791 136.672 261.955 136.793 262.076C136.914 262.197 137.078 262.265 137.249 262.265C137.42 262.265 137.584 262.197 137.705 262.076C137.827 261.955 137.895 261.791 137.895 261.62V258.29C137.895 258.205 137.879 258.121 137.846 258.042C137.814 257.964 137.766 257.893 137.706 257.833C137.646 257.772 137.575 257.725 137.496 257.692C137.418 257.66 137.334 257.643 137.249 257.643Z" fill="#2F2E41"/>
<path d="M140.758 257.643C140.673 257.643 140.589 257.66 140.51 257.692C140.432 257.725 140.361 257.772 140.301 257.833C140.241 257.893 140.193 257.964 140.161 258.042C140.128 258.121 140.112 258.205 140.112 258.29V261.62C140.112 261.791 140.18 261.956 140.301 262.077C140.422 262.199 140.586 262.267 140.758 262.267C140.929 262.267 141.093 262.199 141.214 262.077C141.336 261.956 141.404 261.791 141.404 261.62V258.29C141.404 258.205 141.387 258.121 141.354 258.042C141.322 257.964 141.274 257.893 141.214 257.833C141.154 257.772 141.083 257.725 141.005 257.692C140.926 257.66 140.842 257.643 140.758 257.643Z" fill="#2F2E41"/>
<path d="M144.266 257.643C144.181 257.643 144.097 257.66 144.019 257.692C143.94 257.725 143.869 257.772 143.809 257.833C143.749 257.893 143.701 257.964 143.669 258.042C143.637 258.121 143.62 258.205 143.62 258.29V261.62C143.62 261.791 143.689 261.955 143.81 262.076C143.931 262.197 144.095 262.265 144.266 262.265C144.437 262.265 144.601 262.197 144.722 262.076C144.843 261.955 144.912 261.791 144.912 261.62V258.29C144.912 258.205 144.895 258.121 144.863 258.042C144.83 257.964 144.783 257.893 144.723 257.833C144.663 257.772 144.592 257.725 144.513 257.692C144.435 257.66 144.351 257.643 144.266 257.643Z" fill="#2F2E41"/>
<path d="M147.774 257.643C147.689 257.643 147.605 257.66 147.527 257.692C147.449 257.725 147.377 257.772 147.317 257.833C147.257 257.893 147.21 257.964 147.177 258.042C147.145 258.121 147.128 258.205 147.128 258.29V261.62C147.129 261.791 147.197 261.955 147.318 262.076C147.439 262.197 147.603 262.265 147.774 262.265C147.945 262.265 148.109 262.197 148.23 262.076C148.352 261.955 148.42 261.791 148.42 261.62V258.29C148.42 258.205 148.404 258.121 148.371 258.042C148.339 257.964 148.291 257.893 148.231 257.833C148.171 257.772 148.1 257.725 148.021 257.692C147.943 257.66 147.859 257.643 147.774 257.643Z" fill="#2F2E41"/>
<path d="M150.573 288.682C155.967 288.682 160.34 284.303 160.34 278.9C160.34 273.498 155.967 269.118 150.573 269.118C145.18 269.118 140.807 273.498 140.807 278.9C140.807 284.303 145.18 288.682 150.573 288.682Z" fill="#FFB8B8"/>
<path d="M218.801 290.563C224.194 290.563 228.567 286.184 228.567 280.781C228.567 275.379 224.194 270.999 218.801 270.999C213.407 270.999 209.035 275.379 209.035 280.781C209.035 286.184 213.407 290.563 218.801 290.563Z" fill="#FFB8B8"/>
<path d="M319.605 162.709C318.64 161.11 317.497 159.403 315.706 158.881C313.632 158.277 311.501 159.478 309.694 160.663C304.29 164.207 299.085 168.048 294.104 172.168L294.109 172.23C297.987 171.962 301.206 182.29 305.083 182.022C307.885 181.829 311.443 171.013 313.919 169.685C314.858 169.181 315.774 168.509 316.839 168.462C318.162 168.403 319.315 169.329 320.221 170.295C325.583 176.014 327.134 184.759 333.149 189.783C329.356 180.414 324.828 171.361 319.605 162.709Z" fill="#3F3D56"/>
<path d="M329.925 176.599C332.753 181.716 335.753 186.731 338.925 191.644V191.648C338.906 191.821 338.88 191.994 338.853 192.167C338.47 191.58 338.091 190.991 337.715 190.399C334.868 185.926 332.162 181.367 329.598 176.723C328.381 174.514 327.194 172.288 326.037 170.045C325.143 168.307 324.268 166.558 323.412 164.8C323.167 164.296 322.931 163.792 322.694 163.284C322.138 162.095 321.59 160.899 321.004 159.725C320.335 158.385 319.52 156.986 318.292 156.087C317.733 155.66 317.065 155.402 316.365 155.342C315.379 155.348 314.413 155.625 313.574 156.143C307.22 159.488 301.289 163.585 295.909 168.344C290.521 173.085 285.706 178.44 281.56 184.3C281.432 184.481 281.132 184.308 281.259 184.123C281.766 183.409 282.277 182.705 282.803 182.005C289.321 173.324 297.312 165.859 306.411 159.95C307.94 158.957 309.499 158.01 311.087 157.11C311.888 156.655 312.691 156.207 313.51 155.786C314.294 155.325 315.173 155.052 316.079 154.988C319.197 154.939 320.812 158.476 321.92 160.853C322.266 161.602 322.618 162.35 322.976 163.096C324.324 165.918 325.725 168.717 327.179 171.493C328.073 173.205 328.988 174.907 329.925 176.599Z" fill="#3F3D56"/>
<path d="M295.602 166.598C295.421 166.395 295.241 166.193 295.059 165.991C293.621 164.399 292.079 162.825 290.105 161.912C289.164 161.463 288.137 161.225 287.094 161.213C286.019 161.243 284.958 161.474 283.968 161.896C283.498 162.084 283.037 162.298 282.584 162.526C282.066 162.787 281.557 163.065 281.051 163.346C280.1 163.873 279.162 164.423 278.236 164.996C276.394 166.136 274.609 167.364 272.882 168.678C271.987 169.36 271.11 170.064 270.252 170.791C269.454 171.465 268.672 172.158 267.906 172.869C267.742 173.021 267.498 172.776 267.661 172.624C267.863 172.436 268.067 172.249 268.272 172.064C268.848 171.542 269.434 171.029 270.03 170.527C271.115 169.61 272.229 168.728 273.37 167.881C275.146 166.564 276.982 165.336 278.88 164.198C279.828 163.629 280.789 163.085 281.764 162.564C282.058 162.407 282.356 162.253 282.657 162.107C283.34 161.762 284.05 161.473 284.779 161.242C285.813 160.907 286.906 160.8 287.985 160.927C289.027 161.078 290.03 161.426 290.943 161.951C292.881 163.036 294.384 164.714 295.846 166.351C295.994 166.518 295.751 166.764 295.602 166.598Z" fill="#3F3D56"/>
<path d="M281.42 174.258C280.928 174.283 280.441 174.143 280.036 173.861C278.963 173.047 278.992 171.093 280.122 167.885C280.429 167.016 280.912 166.219 281.539 165.544C282.166 164.869 282.924 164.33 283.768 163.96C284.558 163.606 285.412 163.421 286.278 163.416C287.143 163.411 288 163.586 288.794 163.93C288.933 163.99 289.07 164.055 289.204 164.124C290.123 164.64 290.985 165.252 291.775 165.951C292.446 166.534 293.161 167.064 293.915 167.535L294.167 167.683L293.929 167.851C287.844 172.141 283.718 174.258 281.42 174.258Z" fill="#3F3D56"/>
<path d="M304.818 148.724C302.818 148.723 300.879 148.028 299.333 146.755C297.787 145.483 296.73 143.712 296.342 141.746C294.669 142.086 293.134 142.914 291.931 144.126C290.727 145.338 289.909 146.881 289.58 148.558C289.25 150.236 289.425 151.973 290.08 153.552C290.736 155.13 291.844 156.479 293.264 157.427C294.684 158.376 296.353 158.882 298.06 158.881C299.767 158.881 301.435 158.374 302.855 157.424C304.274 156.475 305.381 155.126 306.036 153.547C306.69 151.968 306.863 150.23 306.533 148.553C305.969 148.667 305.394 148.724 304.818 148.724Z" fill="#3F3D56"/>
<path opacity="0.74" d="M73.5559 162.644C80.6761 162.644 86.4482 156.863 86.4482 149.731C86.4482 142.599 80.6761 136.818 73.5559 136.818C66.4356 136.818 60.6635 142.599 60.6635 149.731C60.6635 156.863 66.4356 162.644 73.5559 162.644Z" fill="#3F3D56"/>
<path opacity="0.74" d="M86.4482 162.644C93.5684 162.644 99.3405 156.863 99.3405 149.731C99.3405 142.599 93.5684 136.818 86.4482 136.818C79.3279 136.818 73.5558 142.599 73.5558 149.731C73.5558 156.863 79.3279 162.644 86.4482 162.644Z" fill="white"/>
<path opacity="0.74" d="M80.1111 152.353C87.2313 152.353 93.0034 146.571 93.0034 139.439C93.0034 132.307 87.2313 126.526 80.1111 126.526C72.9908 126.526 67.2188 132.307 67.2188 139.439C67.2188 146.571 72.9908 152.353 80.1111 152.353Z" fill="#FF6584"/>
<path d="M113.823 135.739L80.7077 146.159L80.9329 146.877L114.048 136.457L113.823 135.739Z" fill="#3F3D56"/>
<path d="M114.034 137.482C114.864 137.482 115.536 136.809 115.536 135.977C115.536 135.146 114.864 134.473 114.034 134.473C113.204 134.473 112.531 135.146 112.531 135.977C112.531 136.809 113.204 137.482 114.034 137.482Z" fill="#3F3D56"/>
<path d="M329.016 203.695C331.217 205.249 333.332 206.833 335.751 208.029C335.706 208.214 335.657 208.402 335.612 208.586C335.315 208.447 335.026 208.3 334.737 208.15C332.284 206.863 330.173 205.113 327.87 203.593C326.729 202.803 325.482 202.178 324.167 201.735C322.796 201.322 321.363 201.154 319.933 201.238C313.972 201.532 308.864 205.095 303.323 206.889C300.611 207.77 297.727 208.24 294.898 207.687C292.07 207.134 289.557 205.629 287.059 204.267C284.595 202.92 281.909 201.566 279.032 201.566C276.688 201.569 274.224 202.51 272.969 204.587C272.93 204.649 272.869 204.693 272.798 204.71C272.727 204.728 272.652 204.717 272.588 204.679C272.525 204.642 272.479 204.582 272.46 204.511C272.441 204.44 272.45 204.365 272.485 204.301C272.765 203.827 273.111 203.396 273.51 203.018C275.148 201.464 277.556 200.851 279.768 201.031C282.63 201.265 285.241 202.619 287.716 203.981C290.342 205.426 293.031 206.98 296.066 207.296C299.064 207.612 302.031 206.825 304.811 205.768C310.194 203.718 315.505 200.301 321.492 200.681C324.317 200.862 326.736 202.089 329.016 203.695Z" fill="#3F3D56"/>
<path d="M93.4103 94.8849V95.6486C93.1579 95.5986 92.9013 95.5734 92.6441 95.5734H88.715V104.024C88.7143 105.275 88.2178 106.474 87.3346 107.359C86.4514 108.243 85.2538 108.741 84.0047 108.741H78.1976V110.043C78.1976 110.565 78.301 111.082 78.5018 111.563H77.698C77.53 111.074 77.445 110.56 77.4463 110.043V108.741H74.2535V107.989H77.4463V99.5389C77.4471 98.2878 77.9436 97.0882 78.8267 96.2036C79.7099 95.3189 80.9076 94.8216 82.1566 94.8209H87.9638V93.5041H88.715V94.8209H92.644C92.9008 94.8212 93.1571 94.8426 93.4103 94.8849Z" fill="white"/>
<path d="M84.0047 88.8012H73.5173C72.2683 88.8019 71.0706 89.2992 70.1874 90.1839C69.3042 91.0685 68.8077 92.2681 68.807 93.5192V104.024C68.8077 105.275 69.3042 106.474 70.1874 107.359C71.0706 108.244 72.2683 108.741 73.5173 108.742H84.0047C85.2537 108.741 86.4514 108.244 87.3346 107.359C88.2178 106.474 88.7143 105.275 88.715 104.024V93.5041C88.7105 92.2556 88.2123 91.0598 87.3295 90.1783C86.4467 89.2969 85.2512 88.8017 84.0047 88.8012ZM87.9638 104.024C87.9624 105.075 87.5448 106.083 86.8026 106.826C86.0605 107.569 85.0543 107.988 84.0047 107.989H73.5173C72.4677 107.988 71.4616 107.569 70.7194 106.826C69.9772 106.083 69.5597 105.075 69.5583 104.024V93.5192C69.5597 92.4679 69.9772 91.4601 70.7194 90.7167C71.4616 89.9733 72.4677 89.5551 73.5173 89.5537H84.0047C85.0518 89.5549 86.0558 89.971 86.7976 90.7112C87.5393 91.4513 87.9586 92.4554 87.9638 93.5041V104.024Z" fill="#3F3D56"/>
<path d="M77.4463 107.989V108.742H78.1976V107.989H77.4463ZM77.4463 107.989V108.742H78.1976V107.989H77.4463ZM93.4103 94.8849C93.157 94.8426 92.9008 94.8212 92.644 94.8209H82.1566C80.9076 94.8216 79.7099 95.3189 78.8267 96.2036C77.9435 97.0882 77.447 98.2878 77.4463 99.5389V110.043C77.4449 110.56 77.53 111.074 77.698 111.563C78.015 112.496 78.6154 113.305 79.415 113.879C80.2145 114.452 81.1732 114.761 82.1566 114.761H92.644C93.893 114.76 95.0907 114.263 95.9739 113.379C96.8571 112.494 97.3536 111.294 97.3543 110.043V99.5389C97.354 98.4208 96.9573 97.3393 96.235 96.4869C95.5127 95.6345 94.5116 95.0668 93.4103 94.8849ZM96.6031 110.043C96.6017 111.095 96.1841 112.102 95.4419 112.846C94.6998 113.589 93.6936 114.007 92.644 114.009H82.1566C81.1071 114.007 80.1009 113.589 79.3588 112.846C78.6166 112.102 78.1991 111.095 78.1976 110.043V99.5389C78.199 98.4876 78.6165 97.4798 79.3587 96.7364C80.1009 95.993 81.107 95.5748 82.1566 95.5734H92.644C93.6939 95.5738 94.7007 95.9917 95.443 96.7353C96.1854 97.4789 96.6027 98.4873 96.6031 99.5389V110.043ZM77.4463 107.989V108.742H78.1976V107.989H77.4463Z" fill="#3F3D56"/>
<path d="M70.0278 206.069H25.4789C25.1688 206.069 24.8714 206.192 24.6518 206.412C24.4322 206.631 24.3082 206.929 24.307 207.239V209.884C25.7768 215.523 27.5562 221.075 29.6371 226.517H70.0278C70.1813 226.517 70.3332 226.487 70.475 226.429C70.6168 226.37 70.7457 226.284 70.8542 226.175C70.9627 226.066 71.0487 225.937 71.1074 225.795C71.166 225.653 71.1961 225.501 71.196 225.347V207.239C71.1956 206.929 71.0725 206.632 70.8535 206.412C70.6344 206.193 70.3375 206.069 70.0278 206.069Z" fill="white"/>
<path d="M65.7833 232.39H32.0148C32.4167 233.335 32.8261 234.271 33.2506 235.205H65.7833C67.6163 235.231 67.5975 232.364 65.7833 232.39Z" fill="#E4E4E4"/>
<path d="M65.7833 238.839H34.9446C35.3954 239.783 35.8586 240.721 36.3344 241.653H65.7833C67.6163 241.679 67.5975 238.816 65.7833 238.839Z" fill="#E4E4E4"/>
<path d="M65.7832 245.291H38.2313C38.7346 246.236 39.253 247.172 39.7789 248.106H65.7832C67.6163 248.132 67.5975 245.265 65.7832 245.291Z" fill="#E4E4E4"/>
<path d="M296.736 71.8613H296.521C297.188 71.8619 297.845 72.0175 298.441 72.3159H297.467C296.417 72.3171 295.411 72.7352 294.669 73.4786C293.926 74.222 293.509 75.2299 293.508 76.2812V86.786C293.509 87.8373 293.926 88.8452 294.669 89.5885C295.411 90.3319 296.417 90.7501 297.467 90.7513H298.088C297.589 90.9473 297.057 91.0484 296.521 91.0491H296.736C297.885 91.0478 298.986 90.59 299.799 89.776C300.612 88.9621 301.069 87.8586 301.07 86.7076V76.2028C301.069 75.0518 300.612 73.9483 299.799 73.1343C298.986 72.3204 297.885 71.8626 296.736 71.8613Z" fill="#3F3D56"/>
<path opacity="0.21" d="M296.736 71.8613H296.521C297.188 71.8619 297.845 72.0175 298.441 72.3159H297.467C296.417 72.3171 295.411 72.7352 294.669 73.4786C293.926 74.222 293.509 75.2299 293.508 76.2812V86.786C293.509 87.8373 293.926 88.8452 294.669 89.5885C295.411 90.3319 296.417 90.7501 297.467 90.7513H298.088C297.589 90.9473 297.057 91.0484 296.521 91.0491H296.736C297.885 91.0478 298.986 90.59 299.799 89.776C300.612 88.9621 301.069 87.8586 301.07 86.7076V76.2028C301.069 75.0518 300.612 73.9483 299.799 73.1343C298.986 72.3204 297.885 71.8626 296.736 71.8613Z" fill="black"/>
<path d="M268.939 71.8613H268.725C269.392 71.8619 270.049 72.0175 270.645 72.3159H269.671C268.621 72.3171 267.615 72.7352 266.873 73.4786C266.13 74.222 265.713 75.2299 265.712 76.2812V86.786C265.713 87.8373 266.13 88.8452 266.873 89.5885C267.615 90.3319 268.621 90.7501 269.671 90.7513H270.292C269.793 90.9473 269.261 91.0484 268.725 91.0491H268.939C270.089 91.0478 271.19 90.59 272.003 89.776C272.816 88.9621 273.273 87.8586 273.274 86.7076V76.2028C273.273 75.0518 272.816 73.9483 272.003 73.1343C271.19 72.3204 270.089 71.8626 268.939 71.8613Z" fill="white"/>
<path opacity="0.21" d="M268.939 71.8613H268.725C269.392 71.8619 270.049 72.0175 270.645 72.3159H269.671C268.621 72.3171 267.615 72.7352 266.873 73.4786C266.13 74.222 265.713 75.2299 265.712 76.2812V86.786C265.713 87.8373 266.13 88.8452 266.873 89.5885C267.615 90.3319 268.621 90.7501 269.671 90.7513H270.292C269.793 90.9473 269.261 91.0484 268.725 91.0491H268.939C270.089 91.0478 271.19 90.59 272.003 89.776C272.816 88.9621 273.273 87.8586 273.274 86.7076V76.2028C273.273 75.0518 272.816 73.9483 272.003 73.1343C271.19 72.3204 270.089 71.8626 268.939 71.8613Z" fill="black"/>
<path d="M269.712 90.7839C268.663 90.7828 267.657 90.3646 266.914 89.6212C266.172 88.8778 265.755 87.8699 265.754 86.8186V76.3139C265.755 75.2626 266.172 74.2547 266.914 73.5113C267.657 72.7679 268.663 72.3497 269.712 72.3485H270.687C270.091 72.0502 269.434 71.8945 268.767 71.8939H258.28C257.13 71.8952 256.029 72.3531 255.216 73.167C254.403 73.9809 253.946 75.0844 253.945 76.2355V86.7402C253.946 87.8913 254.403 88.9948 255.216 89.8087C256.029 90.6226 257.13 91.0805 258.28 91.0818H268.767C269.303 91.081 269.834 90.98 270.333 90.7839L269.712 90.7839Z" fill="white"/>
<path d="M297.509 90.7839C296.459 90.7828 295.453 90.3646 294.71 89.6212C293.968 88.8778 293.551 87.8699 293.55 86.8186V76.3139C293.551 75.2626 293.968 74.2547 294.71 73.5113C295.453 72.7679 296.459 72.3497 297.509 72.3485H298.483C297.887 72.0502 297.23 71.8945 296.563 71.8939H286.076C284.927 71.8952 283.825 72.3531 283.012 73.167C282.2 73.9809 281.743 75.0844 281.741 76.2355V86.7402C281.743 87.8913 282.2 88.9948 283.012 89.8087C283.825 90.6226 284.927 91.0805 286.076 91.0818H296.563C297.099 91.081 297.631 90.98 298.13 90.7839L297.509 90.7839Z" fill="#3F3D56"/>
<path d="M309.893 74.5082C313.742 79.8119 317.263 85.3466 320.437 91.0812H313.871C312.722 91.0795 311.62 90.6215 310.808 89.8077C309.995 88.9938 309.538 87.8905 309.536 86.7395V76.2351C309.536 75.641 309.657 75.0533 309.893 74.5082Z" fill="#FF6584"/>
<path d="M296.728 96.593L293.054 91.0812L290.368 87.0517C290.211 86.8163 289.991 86.6303 289.733 86.5151C289.475 86.3999 289.19 86.3603 288.911 86.4008C288.631 86.4414 288.369 86.5605 288.154 86.7443C287.939 86.928 287.781 87.169 287.698 87.4392L286.567 91.0812L284.291 98.3989C284.201 98.6904 284.202 99.0025 284.293 99.2935C284.385 99.5844 284.563 99.8404 284.804 100.027C285.045 100.214 285.337 100.323 285.641 100.339C285.946 100.355 286.247 100.278 286.507 100.118L287.314 99.6179C287.477 99.5175 287.662 99.4604 287.853 99.4519C288.044 99.4434 288.234 99.4838 288.404 99.5693C288.575 99.6549 288.721 99.7827 288.829 99.9406C288.937 100.099 289.002 100.281 289.02 100.472L289.76 108.561C289.794 108.932 289.966 109.278 290.241 109.53C290.516 109.781 290.875 109.922 291.247 109.923C291.292 109.923 291.337 109.919 291.386 109.915L292.521 109.814C292.716 109.796 292.906 109.74 293.08 109.648C293.254 109.557 293.408 109.432 293.534 109.28C293.66 109.129 293.754 108.954 293.812 108.766C293.871 108.578 293.891 108.381 293.873 108.185L293.11 99.8323C293.092 99.6361 293.126 99.4386 293.208 99.2597C293.291 99.0807 293.419 98.9267 293.579 98.813C293.74 98.6994 293.928 98.6301 294.124 98.6122C294.32 98.5943 294.517 98.6285 294.695 98.7112L294.861 98.7864C295.157 98.9229 295.489 98.9588 295.807 98.8886C296.125 98.8185 296.412 98.6461 296.623 98.3977C296.835 98.1494 296.959 97.8387 296.978 97.5129C296.997 97.1871 296.909 96.8641 296.728 96.593Z" fill="#CCCCCC"/>
</g>
<defs>
<clipPath id="clip0_18_1165">
<rect width="339" height="330" fill="white"/>
</clipPath>
</defs>
</svg>
